<?xml version="1.0" encoding="UTF-8"?>
<svg width="43px" height="43px" viewBox="0 0 43 43" version="1.1" xmlns="http://www.w3.org/2000/svg" xmlns:xlink="http://www.w3.org/1999/xlink">
    <!-- Generator: Sketch 47.1 (45422) - http://www.bohemiancoding.com/sketch -->
    <title>Fill 7</title>
    <desc>Created with Sketch.</desc>
    <defs></defs>
    <g id="Symbols" stroke="none" stroke-width="1" fill="none" fill-rule="evenodd">
        <g id="Site-Footer" transform="translate(-979.000000, -26.000000)" fill="#FFFFFF">
            <g id="Newsletter-+-Social-icons">
                <g>
                    <path d="M1006.69214,38.5722149 L1003.70598,38.5722149 C1002.65124,38.5722149 1002.43163,39.0043681 1002.43163,40.0948426 L1002.43163,42.7305021 L1006.69214,42.7305021 L1006.28199,47.3571532 L1002.43163,47.3571532 L1002.43163,61.1777447 L996.913379,61.1777447 L996.913379,47.4153277 L994.043558,47.4153277 L994.043558,42.7305021 L996.913379,42.7305021 L996.913379,39.0411723 C996.913379,35.5786043 998.765259,33.7704468 1002.87145,33.7704468 L1006.69214,33.7704468 L1006.69214,38.5722149 Z M1000.36785,26 C988.566267,26 979,35.5673255 979,47.3702128 C979,59.1731 988.566267,68.7404255 1000.36785,68.7404255 C1012.16883,68.7404255 1021.73569,59.1731 1021.73569,47.3702128 C1021.73569,35.5673255 1012.16883,26 1000.36785,26 L1000.36785,26 Z" id="Fill-7"></path>
                </g>
            </g>
        </g>
    </g>
</svg>