<?xml version="1.0" encoding="UTF-8"?>
<svg width="43px" height="43px" viewBox="0 0 43 43" version="1.1" xmlns="http://www.w3.org/2000/svg" xmlns:xlink="http://www.w3.org/1999/xlink">
    <!-- Generator: Sketch 47.1 (45422) - http://www.bohemiancoding.com/sketch -->
    <title>Fill 9</title>
    <desc>Created with Sketch.</desc>
    <defs></defs>
    <g id="Symbols" stroke="none" stroke-width="1" fill="none" fill-rule="evenodd">
        <g id="Site-Footer" transform="translate(-1034.000000, -26.000000)" fill="#FFFFFF">
            <g id="Newsletter-+-Social-icons">
                <g>
                    <path d="M1066.11409,43.6880064 C1066.4269,50.6594447 1061.22917,58.432266 1052.02734,58.432266 C1049.22875,58.432266 1046.62365,57.6112936 1044.43048,56.2050149 C1047.05932,56.514883 1049.684,55.7859213 1051.76737,54.1522872 C1049.59912,54.1125149 1047.76861,52.6795234 1047.13826,50.7104957 C1047.91462,50.8589 1048.67852,50.815566 1049.37595,50.6262021 C1046.99224,50.1465596 1045.34751,47.9994468 1045.40093,45.7033362 C1046.06927,46.0743468 1046.83377,46.2975468 1047.64634,46.3224787 C1045.43892,44.847934 1044.81391,41.9332745 1046.1126,39.7054298 C1048.55625,42.704383 1052.20778,44.677566 1056.32703,44.8847383 C1055.60467,41.783683 1057.95632,38.798383 1061.15497,38.798383 C1062.58068,38.798383 1063.86869,39.399717 1064.77207,40.3631574 C1065.90101,40.1411447 1066.96169,39.7285809 1067.91908,39.1604894 C1067.5493,40.3180426 1066.76344,41.2897936 1065.74016,41.9024064 C1066.74266,41.7830894 1067.69769,41.5165553 1068.58683,41.1223936 C1067.92264,42.1167021 1067.08218,42.9893191 1066.11409,43.6880064 M1055.36785,26 C1043.56686,26 1034,35.5673255 1034,47.3702128 C1034,59.1731 1043.56686,68.7404255 1055.36785,68.7404255 C1067.16883,68.7404255 1076.73569,59.1731 1076.73569,47.3702128 C1076.73569,35.5673255 1067.16883,26 1055.36785,26" id="Fill-9"></path>
                </g>
            </g>
        </g>
    </g>
</svg>