<?xml version="1.0" encoding="UTF-8"?>
<svg width="43px" height="43px" viewBox="0 0 43 43" version="1.1" xmlns="http://www.w3.org/2000/svg" xmlns:xlink="http://www.w3.org/1999/xlink">
    <!-- Generator: Sketch 47.1 (45422) - http://www.bohemiancoding.com/sketch -->
    <title>Fill 21</title>
    <desc>Created with Sketch.</desc>
    <defs></defs>
    <g id="Symbols" stroke="none" stroke-width="1" fill="none" fill-rule="evenodd">
        <g id="Site-Footer" transform="translate(-1145.000000, -26.000000)" fill="#FFFFFF">
            <g id="Newsletter-+-Social-icons">
                <g>
                    <path d="M1178.31247,57.316266 C1178.31247,59.1309532 1176.84225,60.6007489 1175.02835,60.6007489 L1158.14301,60.6007489 C1156.32852,60.6007489 1154.85829,59.1309532 1154.85829,57.316266 L1154.85829,49.0175 C1154.85829,47.2028128 1156.32852,45.7312362 1158.14301,45.7312362 L1175.02835,45.7312362 C1176.84225,45.7312362 1178.31247,47.2028128 1178.31247,49.0175 L1178.31247,57.316266 Z M1159.92366,33.5324064 L1161.03657,37.7073149 L1162.07054,33.5324064 L1163.70874,33.5324064 L1161.83133,39.7410468 L1161.83133,43.9776915 L1160.21806,43.9776915 L1160.21806,39.7410468 L1158.29911,33.5324064 L1159.92366,33.5324064 Z M1165.73512,36.2084319 C1166.8967,36.2084319 1167.79415,37.0727383 1167.79415,38.2795617 L1167.79415,42.0561532 C1167.79415,43.3508319 1166.8872,44.1207532 1165.73512,44.1207532 C1164.34621,44.1207532 1163.63514,43.4137553 1163.63514,42.0561532 L1163.63514,38.2795617 C1163.63514,37.0430574 1164.47264,36.2084319 1165.73512,36.2084319 L1165.73512,36.2084319 Z M1169.01034,36.2719489 L1170.44317,36.2719489 L1170.44317,42.1796255 C1170.44317,42.4894936 1170.51736,42.6984468 1170.82482,42.6984468 C1171.10379,42.6984468 1171.49257,42.3399021 1171.66767,42.1208574 L1171.66767,36.2731362 L1173.09931,36.2731362 L1173.09931,43.9776915 L1171.66767,43.9776915 L1171.66767,43.1276319 C1171.04622,43.8643106 1170.44436,44.0892915 1170.01107,44.0892915 C1169.2436,44.0892915 1169.01034,43.4743043 1169.01034,42.7126936 L1169.01034,36.2719489 Z M1166.48003,26 C1154.61731,26 1145,35.6189702 1145,47.4841872 C1145,59.3488106 1154.61731,68.9671872 1166.48003,68.9671872 C1178.34512,68.9671872 1187.96302,59.3488106 1187.96302,47.4841872 C1187.96302,35.6189702 1178.34512,26 1166.48003,26 L1166.48003,26 Z M1174.74879,53.5052447 L1173.54329,53.5052447 L1173.54329,52.7632234 C1173.54329,52.2580553 1173.64775,51.9024787 1174.15287,51.9024787 C1174.64195,51.9024787 1174.74879,52.2657723 1174.74879,52.7632234 L1174.74879,53.5052447 Z M1174.21103,50.6178915 C1172.98001,50.6178915 1172.13954,51.5017872 1172.13954,52.7768766 L1172.13954,56.0702638 C1172.13954,57.3916553 1172.80491,58.3408489 1174.10776,58.3408489 C1175.54534,58.3408489 1176.15254,57.4842596 1176.15254,56.0702638 L1176.15254,55.5187936 L1174.74879,55.5187936 L1174.74879,56.0287106 C1174.74879,56.6680362 1174.71496,57.0556681 1174.13921,57.0556681 C1173.58959,57.0556681 1173.54329,56.5801809 1173.54329,56.0287106 L1173.54329,54.6443957 L1176.15254,54.6443957 L1176.15254,52.7768766 C1176.15254,51.4495489 1175.51982,50.6178915 1174.21103,50.6178915 L1174.21103,50.6178915 Z M1161.9821,49.6372362 L1160.39316,49.6372362 L1160.39316,58.1419872 L1158.85705,58.1419872 L1158.85705,49.6372362 L1157.26633,49.6372362 L1157.26633,48.192966 L1161.9821,48.192966 L1161.9821,49.6372362 Z M1164.49341,50.8036936 L1165.85799,50.8036936 L1165.85799,58.1419872 L1164.49341,58.1419872 L1164.49341,57.3317 C1164.24175,57.6296957 1163.97999,57.8576447 1163.70874,58.013766 C1162.97333,58.435234 1161.9637,58.4263298 1161.9637,56.9369447 L1161.9637,50.8036936 L1163.32827,50.8036936 L1163.32827,56.4282149 C1163.32827,56.7238362 1163.40009,56.9232915 1163.69093,56.9232915 C1163.95625,56.9232915 1164.32722,56.5825553 1164.49341,56.3736021 L1164.49341,50.8036936 Z M1165.11011,41.9908553 L1165.11011,38.4060021 C1165.11011,37.984534 1165.3048,37.6711043 1165.70722,37.6711043 C1166.14645,37.6711043 1166.33401,37.9750362 1166.33401,38.4060021 L1166.33401,41.9908553 C1166.33401,42.4105426 1166.12093,42.7204106 1165.73512,42.7204106 C1165.33982,42.7204106 1165.11011,42.3968894 1165.11011,41.9908553 L1165.11011,41.9908553 Z M1169.70598,56.4222787 C1169.70598,56.6561638 1169.66681,56.8241574 1169.58668,56.9280404 C1169.4371,57.1251213 1169.11124,57.1156234 1168.88985,57.0028362 C1168.78538,56.9511915 1168.67795,56.8639298 1168.56636,56.7446128 L1168.56636,52.1719809 C1168.65896,52.071066 1168.75214,51.9962702 1168.8483,51.9481872 C1169.08691,51.827683 1169.39555,51.850834 1169.55997,52.0686915 C1169.65612,52.1963191 1169.70598,52.3844957 1169.70598,52.632034 L1169.70598,56.4222787 Z M1169.77899,50.7104957 C1169.29227,50.7104957 1168.87382,51.0209574 1168.56636,51.3961234 L1168.56636,48.192966 L1167.18873,48.192966 L1167.18873,58.1419872 L1168.56636,58.1419872 L1168.56636,57.5780511 C1168.94683,58.0523511 1169.36291,58.2345915 1169.86268,58.2345915 C1170.77022,58.2345915 1171.10973,57.5287809 1171.10973,56.621734 L1171.10973,52.5501149 C1171.10973,51.5552128 1170.77853,50.7104957 1169.77899,50.7104957 L1169.77899,50.7104957 Z" id="Fill-21"></path>
                </g>
            </g>
        </g>
    </g>
</svg>