<?xml version="1.0" encoding="UTF-8"?>
<svg width="43px" height="43px" viewBox="0 0 43 43" version="1.1" xmlns="http://www.w3.org/2000/svg" xmlns:xlink="http://www.w3.org/1999/xlink">
    <!-- Generator: Sketch 47.1 (45422) - http://www.bohemiancoding.com/sketch -->
    <title>Fill 3</title>
    <desc>Created with Sketch.</desc>
    <defs></defs>
    <g id="Symbols" stroke="none" stroke-width="1" fill="none" fill-rule="evenodd">
        <g id="Site-Footer" transform="translate(-1090.000000, -26.000000)" fill="#FFFFFF">
            <g id="Newsletter-+-Social-icons">
                <g>
                    <path d="M1123.69531,40.0437915 C1123.69531,37.418817 1121.56684,35.2907 1118.94216,35.2907 L1105.95407,35.2907 L1105.95407,41.2832638 L1104.98005,41.2832638 L1104.98005,35.2907 L1104.41736,35.2907 C1104.37997,35.2907 1104.34376,35.2924809 1104.30696,35.2930745 L1104.30696,41.2832638 L1103.33235,41.2832638 L1103.33235,35.4165468 C1103.09671,35.4717532 1102.86701,35.5441745 1102.6462,35.6326234 L1102.6462,41.2832638 L1101.67219,41.2832638 L1101.67219,36.1650979 C1100.45778,37.0258426 1099.6642,38.4416191 1099.6642,40.0437915 L1099.6642,43.1656234 L1107.28362,43.1656234 C1108.3989,42.0335957 1109.94867,41.3301596 1111.66344,41.3301596 C1113.3788,41.3301596 1114.92856,42.0335957 1116.04444,43.1656234 L1123.69472,43.1656234 L1123.69472,40.0437915 L1123.69531,40.0437915 Z M1111.66344,52.2176894 C1114.27625,52.2176894 1116.40116,50.0925404 1116.40116,47.4794383 C1116.40116,46.0618809 1115.77378,44.7879787 1114.78314,43.9183298 C1114.43532,43.6143979 1114.04358,43.3597362 1113.61741,43.1656234 C1113.02207,42.894934 1112.36027,42.7423745 1111.66344,42.7423745 C1110.96779,42.7423745 1110.30598,42.894934 1109.71006,43.1656234 C1109.28448,43.3597362 1108.89214,43.6143979 1108.54492,43.9183298 C1107.55428,44.7879787 1106.9269,46.0618809 1106.9269,47.4794383 C1106.9269,50.0925404 1109.05181,52.2176894 1111.66344,52.2176894 L1111.66344,52.2176894 Z M1123.69531,43.9183298 L1116.67538,43.9183298 C1117.39061,44.923917 1117.81322,46.1521106 1117.81322,47.4794383 C1117.81322,50.8761149 1115.05974,53.6299043 1111.66344,53.6299043 C1108.26832,53.6299043 1105.51484,50.8761149 1105.51484,47.4794383 C1105.51484,46.1521106 1105.93685,44.923917 1106.65268,43.9183298 L1099.6642,43.9183298 L1099.6642,54.696634 C1099.6642,57.3210149 1101.79268,59.4491319 1104.41736,59.4491319 L1118.94216,59.4491319 C1121.56743,59.4491319 1123.69531,57.3210149 1123.69531,54.696634 L1123.69531,43.9183298 Z M1132.73569,47.3702128 C1132.73569,59.1731 1123.16943,68.7404255 1111.36785,68.7404255 C1099.56745,68.7404255 1090,59.1731 1090,47.3702128 C1090,35.5673255 1099.56745,26 1111.36785,26 C1123.16943,26 1132.73569,35.5673255 1132.73569,47.3702128 L1132.73569,47.3702128 Z M1111.67946,50.9811851 C1113.61325,50.9811851 1115.18023,49.4134426 1115.18023,47.4794383 C1115.18023,45.5466213 1113.61325,43.9788787 1111.67946,43.9788787 C1109.74567,43.9788787 1108.1781,45.5466213 1108.1781,47.4794383 C1108.1781,49.4134426 1109.74567,50.9811851 1111.67946,50.9811851 L1111.67946,50.9811851 Z M1121.52292,38.040334 L1121.52292,40.6670894 C1121.52292,41.0879638 1121.18162,41.4292936 1120.7602,41.4292936 L1118.19131,41.4292936 C1117.76989,41.4292936 1117.42801,41.0879638 1117.42801,40.6670894 L1117.42801,38.040334 C1117.42801,37.6194596 1117.76989,37.2781298 1118.19131,37.2781298 L1120.7602,37.2781298 C1121.18162,37.2781298 1121.52292,37.6194596 1121.52292,38.040334 L1121.52292,38.040334 Z" id="Fill-3"></path>
                </g>
            </g>
        </g>
    </g>
</svg>